<!DOCTYPE svg PUBLIC "-//W3C//DTD SVG 1.1//EN" "http://www.w3.org/Graphics/SVG/1.1/DTD/svg11.dtd">
<!-- Uploaded to: SVG Repo, www.svgrepo.com, Transformed by: SVG Repo Mixer Tools -->
<svg fill="#fafafa" version="1.1" id="Layer_1" xmlns="http://www.w3.org/2000/svg" xmlns:xlink="http://www.w3.org/1999/xlink" viewBox="0 0 512 512" xml:space="preserve" width="800px" height="800px" stroke="#fafafa">
<g id="SVGRepo_bgCarrier" stroke-width="0"/>
<g id="SVGRepo_tracerCarrier" stroke-linecap="round" stroke-linejoin="round"/>
<g id="SVGRepo_iconCarrier"> <g> <g> <g> <path d="M68.267,426.667c-9.429,0-17.067,7.637-17.067,17.067c0,9.421,7.637,17.067,17.067,17.067s17.067-7.646,17.067-17.067 C85.333,434.304,77.696,426.667,68.267,426.667z"/> <path d="M486.4,460.8h-85.333V25.6c0-14.114-11.486-25.6-25.6-25.6s-25.6,11.486-25.6,25.6v281.6h-26.095 C321.314,128.068,307.507,0,238.933,0H68.267c-4.71,0-8.533,3.814-8.533,8.533v34.133c0,4.719,3.823,8.533,8.533,8.533h9.054 L51.183,218.069c-5.043-2.935-10.812-4.736-17.05-4.736C15.309,213.333,0,228.642,0,247.467c0,11.648,5.879,21.922,14.805,28.083 C5.803,283.511,0,295.014,0,307.951v33.382v102.4C0,481.374,30.626,512,68.267,512c25.199,0,47.206-13.764,59.025-34.133h69.837 C201.097,497.314,218.334,512,238.933,512s37.837-14.686,41.805-34.133h8.798c19.149,0,34.731-15.582,34.731-34.731v-16.469h25.6 v76.8c0,4.719,3.823,8.533,8.533,8.533h128c14.114,0,25.6-11.486,25.6-25.6S500.514,460.8,486.4,460.8z M76.8,34.133V17.067 h162.133c62.054,0,68.096,179.968,68.258,366.933h-17.058c-0.009-15.019-0.034-29.269-0.094-42.923 c-0.009-0.247,0.026-0.486,0-0.734c-0.469-102.477-3.217-167.791-18.492-218.846c-19.541-65.314-32.085-87.364-49.681-87.364 h-100.19H87.296H76.8z M244.966,207.3c-3.337-3.337-8.73-3.337-12.066,0l-34.133,34.133c-3.337,3.337-3.337,8.73,0,12.066 c1.664,1.664,3.849,2.5,6.033,2.5c2.185,0,4.369-0.836,6.033-2.5l8.96-8.96l47.522,88.26H204.8v-19.183 c0-17.647-14.362-32.017-32.017-32.017h-6.596c-6.938,0-12.587-5.641-12.587-12.587v-32.196 c0-17.647-14.362-32.017-32.017-32.017h-10.974l18.628-153.6h92.629c3.26,0,13.022,7.322,33.331,75.204 c12.851,42.94,16.478,99.908,17.485,180.378l-40.294-74.837l12.578-12.578C248.303,216.03,248.303,210.637,244.966,207.3z M65.451,260.975c0.043-0.102,0.102-0.188,0.145-0.29c0.776-1.835,1.331-3.746,1.775-5.692c0.102-0.461,0.188-0.922,0.273-1.391 c0.367-2.014,0.623-4.053,0.623-6.135c0-2.159-0.222-4.301-0.648-6.417c-0.41-2.125-1.033-4.156-1.809-6.118L94.592,51.2h17.459 L93.414,204.809c-0.606,0.034-1.135,0.273-1.698,0.427c-0.435,0.111-0.896,0.145-1.306,0.324 c-0.589,0.265-1.058,0.674-1.57,1.058c-0.35,0.265-0.759,0.452-1.075,0.777c-0.469,0.486-0.785,1.092-1.135,1.681 c-0.196,0.341-0.486,0.623-0.64,0.99c-0.418,1.007-0.657,2.108-0.657,3.268v51.2H63.684 C64.358,263.381,64.93,262.187,65.451,260.975z M17.067,307.951c0-14.532,11.819-26.351,26.351-26.351H51.2h34.133v51.2H17.067 V307.951z M17.067,349.867h76.8h102.4H272.7c0.188,10.931,0.316,22.289,0.35,34.133H101.24c-4.403-2.44-9.105-4.378-14.037-5.803 c-0.051-0.017-0.102-0.043-0.154-0.06v0.017c-0.333-0.094-0.674-0.171-1.007-0.256v-0.026c-0.375-0.102-0.777-0.179-1.161-0.273 c-1.877-0.469-3.772-0.862-5.692-1.178c-0.256-0.043-0.469-0.085-0.734-0.128l-1.604-0.239h-0.094 c-2.79-0.35-5.615-0.589-8.491-0.589s-5.7,0.239-8.482,0.589h-0.111l-2.014,0.299c-0.102,0.017-0.205,0.051-0.307,0.068 c-2.278,0.367-4.523,0.845-6.724,1.442c-0.179,0.043-0.316,0.051-0.495,0.102c-0.077,0.026-0.521,0.145-0.657,0.171 c-0.043,0.017-0.094,0.043-0.137,0.06c-3.072,0.888-6.059,1.98-8.934,3.277c-0.222,0.102-0.427,0.213-0.64,0.307 c-2.671,1.237-5.239,2.628-7.714,4.181c-0.205,0.136-0.427,0.256-0.64,0.393c-2.62,1.698-5.12,3.55-7.484,5.572 c-0.043,0.043-0.085,0.085-0.137,0.128c-2.321,1.997-4.489,4.164-6.519,6.451c-0.068,0.068-0.145,0.128-0.205,0.205V349.867z M119.159,449.237c-0.034,0.341-0.111,0.666-0.154,0.998c-0.196,1.519-0.427,3.021-0.768,4.514 c-0.051,0.247-0.128,0.486-0.188,0.734c-0.384,1.596-0.819,3.183-1.365,4.753c-0.043,0.12-0.085,0.239-0.128,0.358 c-0.589,1.673-1.263,3.32-2.031,4.941c-8.209,17.34-25.83,29.397-46.259,29.397c-28.237,0-51.2-22.963-51.2-51.2 c0-2.603,0.256-5.163,0.64-7.68c0.06-0.393,0.111-0.794,0.179-1.178c0.452-2.534,1.067-5.018,1.877-7.424 c0.034-0.094,0.077-0.188,0.102-0.282c1.766-5.086,4.301-9.856,7.509-14.123c0.034-0.043,0.068-0.094,0.102-0.137 c4.855-6.417,11.213-11.682,18.611-15.258c0.137-0.06,0.282-0.136,0.418-0.196c2.449-1.152,5.001-2.142,7.663-2.901 c0.316-0.094,0.64-0.162,0.964-0.247c1.673-0.444,3.388-0.802,5.564-1.152c0.162-0.026,0.324-0.051,0.486-0.077l0.614-0.085 c4.241-0.538,8.704-0.538,12.928,0l1.519,0.23c1.826,0.282,3.618,0.666,6.118,1.331c4.173,1.186,8.218,2.953,12.023,5.222 c0.085,0.051,0.179,0.111,0.265,0.162c1.886,1.135,3.678,2.372,5.367,3.703c0.026,0.017,0.06,0.043,0.085,0.06 c1.664,1.323,3.226,2.731,4.693,4.224c0.307,0.316,0.589,0.649,0.888,0.973c0.99,1.058,1.937,2.159,2.825,3.285 c0.512,0.649,1.007,1.314,1.485,1.988c0.631,0.887,1.22,1.801,1.792,2.722c0.469,0.751,0.956,1.493,1.382,2.27 c0.836,1.536,1.613,3.098,2.287,4.71c0.316,0.751,0.563,1.527,0.845,2.295c0.401,1.101,0.785,2.202,1.109,3.328 c0.23,0.785,0.427,1.579,0.614,2.372c0.29,1.246,0.538,2.517,0.742,3.789c0.111,0.683,0.23,1.348,0.307,2.031 c0.239,1.997,0.393,4.002,0.393,6.042C119.467,445.585,119.356,447.411,119.159,449.237z M307.2,418.133v25.003 c0,9.737-7.927,17.664-17.664,17.664h-8.798v-0.026c-0.034-0.154-0.102-0.29-0.137-0.444c-0.529-2.458-1.28-4.83-2.21-7.108 c-0.333-0.811-0.777-1.553-1.161-2.338c-0.759-1.562-1.536-3.106-2.475-4.557c-0.546-0.845-1.161-1.613-1.766-2.415 c-0.947-1.28-1.937-2.509-3.021-3.669c-0.717-0.759-1.459-1.468-2.227-2.176c-1.143-1.058-2.338-2.039-3.601-2.97 c-0.836-0.623-1.673-1.22-2.56-1.783c-1.357-0.853-2.765-1.587-4.215-2.287c-0.905-0.444-1.792-0.905-2.731-1.28 c-1.638-0.649-3.345-1.126-5.077-1.579c-0.845-0.222-1.656-0.512-2.517-0.683c-2.628-0.512-5.333-0.819-8.107-0.819 s-5.478,0.307-8.107,0.819c-0.862,0.171-1.672,0.461-2.526,0.683c-1.724,0.452-3.43,0.93-5.069,1.579 c-0.939,0.375-1.826,0.836-2.731,1.28c-1.451,0.7-2.859,1.434-4.215,2.287c-0.887,0.563-1.724,1.161-2.56,1.783 c-1.263,0.93-2.458,1.911-3.601,2.97c-0.768,0.708-1.51,1.417-2.227,2.176c-1.084,1.161-2.074,2.389-3.029,3.669 c-0.597,0.802-1.212,1.57-1.758,2.415c-0.939,1.451-1.715,2.995-2.475,4.557c-0.384,0.785-0.828,1.527-1.161,2.338 c-0.939,2.278-1.681,4.651-2.21,7.108c-0.034,0.154-0.102,0.29-0.137,0.444v0.026h-62.78c0.077-0.307,0.102-0.623,0.179-0.93 c0.486-2.005,0.879-4.036,1.186-6.101c0.102-0.691,0.23-1.365,0.316-2.057c0.299-2.62,0.503-5.274,0.503-7.979 c0-2.21-0.128-4.386-0.333-6.554c-0.051-0.563-0.145-1.118-0.213-1.681c-0.196-1.638-0.435-3.268-0.751-4.881 c-0.102-0.512-0.213-1.024-0.324-1.536c-0.375-1.715-0.811-3.405-1.314-5.069c-0.094-0.333-0.196-0.666-0.299-0.998 c-0.623-1.963-1.331-3.891-2.125-5.777c-0.008-0.026-0.017-0.051-0.026-0.068c-2.441-5.777-5.623-11.204-9.574-16.102H281.6h25.6 V418.133z M349.867,375.467H324.25c-0.009-5.734-0.026-11.409-0.051-17.067h25.668V375.467z"/> <rect x="418.133" y="290.133" width="93.867" height="34.133"/> <rect x="418.133" y="187.733" width="93.867" height="34.133"/> <rect x="418.133" y="238.933" width="93.867" height="34.133"/> <rect x="418.133" y="341.333" width="93.867" height="34.133"/> <path d="M418.133,435.2c0,4.719,3.814,8.533,8.533,8.533h76.8c4.719,0,8.533-3.814,8.533-8.533v-42.667h-93.867V435.2z"/> <path d="M503.467,119.467h-76.8c-4.719,0-8.533,3.814-8.533,8.533v42.667H512V128C512,123.281,508.186,119.467,503.467,119.467z"/> </g> </g> </g> </g>
</svg>